<svg xmlns="http://www.w3.org/2000/svg" viewBox="0 0 800 800"><circle cx="694" cy="92" r="1.2" fill="#C09047" opacity="0.31"/><circle cx="762" cy="82" r="0.6" fill="#C09047" opacity="0.74"/><circle cx="593" cy="183" r="2.2" fill="#F2D592" opacity="0.51"/><circle cx="626" cy="129" r="1.2" fill="#86511C" opacity="0.69"/><circle cx="458" cy="110" r="2.2" fill="#C09047" opacity="0.21"/><circle cx="754" cy="192" r="1.2" fill="#C09047" opacity="0.55"/><circle cx="711" cy="111" r="0.8" fill="#C09047" opacity="0.67"/><circle cx="691" cy="11" r="1.2" fill="#C09047" opacity="0.53"/><circle cx="700" cy="235" r="1" fill="#F2D592" opacity="0.58"/><circle cx="658" cy="360" r="2.2" fill="#C09047" opacity="0.26"/><circle cx="676" cy="15" r="0.5" fill="#C09047" opacity="0.39"/><circle cx="465" cy="415" r="0.5" fill="#86511C" opacity="0.26"/><circle cx="492" cy="229" r="2.2" fill="#FFE8B3" opacity="0.46"/><circle cx="775" cy="63" r="1" fill="#C09047" opacity="0.53"/><circle cx="388" cy="321" r="1.6" fill="#FFE8B3" opacity="0.20"/><circle cx="527" cy="134" r="0.8" fill="#FFE8B3" opacity="0.67"/><circle cx="510" cy="81" r="1.2" fill="#C09047" opacity="0.39"/><circle cx="531" cy="190" r="0.6" fill="#FFE8B3" opacity="0.63"/><circle cx="506" cy="406" r="0.8" fill="#FFE8B3" opacity="0.26"/><circle cx="694" cy="331" r="0.8" fill="#FFE8B3" opacity="0.39"/><circle cx="653" cy="149" r="0.5" fill="#F2D592" opacity="0.75"/><circle cx="741" cy="90" r="0.5" fill="#C09047" opacity="0.40"/><circle cx="789" cy="420" r="2.2" fill="#F2D592" opacity="0.17"/><circle cx="710" cy="94" r="0.5" fill="#F2D592" opacity="0.68"/><circle cx="772" cy="221" r="0.6" fill="#F2D592" opacity="0.33"/><circle cx="468" cy="284" r="1.2" fill="#C09047" opacity="0.40"/><circle cx="790" cy="290" r="2.2" fill="#C09047" opacity="0.21"/><circle cx="437" cy="76" r="1" fill="#C09047" opacity="0.42"/><circle cx="650" cy="146" r="0.8" fill="#FFE8B3" opacity="0.36"/><circle cx="647" cy="185" r="0.8" fill="#C09047" opacity="0.88"/><circle cx="711" cy="131" r="2.2" fill="#C09047" opacity="0.89"/><circle cx="652" cy="128" r="0.6" fill="#F2D592" opacity="0.65"/><circle cx="709" cy="139" r="1.2" fill="#FFE8B3" opacity="0.68"/><circle cx="378" cy="113" r="2.2" fill="#C09047" opacity="0.44"/><circle cx="556" cy="460" r="1.6" fill="#C09047" opacity="0.26"/><circle cx="421" cy="182" r="0.8" fill="#C09047" opacity="0.28"/><circle cx="682" cy="12" r="0.8" fill="#C09047" opacity="0.42"/><circle cx="769" cy="317" r="1.2" fill="#FFE8B3" opacity="0.40"/><circle cx="457" cy="260" r="1" fill="#FFE8B3" opacity="0.44"/><circle cx="625" cy="1" r="2.2" fill="#86511C" opacity="0.40"/><circle cx="663" cy="120" r="1.6" fill="#86511C" opacity="0.60"/><circle cx="645" cy="156" r="1" fill="#FFE8B3" opacity="0.39"/><circle cx="576" cy="250" r="1" fill="#FFE8B3" opacity="0.66"/><circle cx="544" cy="265" r="1.6" fill="#F2D592" opacity="0.22"/><circle cx="614" cy="52" r="0.8" fill="#C09047" opacity="0.37"/><circle cx="663" cy="139" r="0.5" fill="#86511C" opacity="0.88"/><circle cx="794" cy="63" r="1" fill="#FFE8B3" opacity="0.68"/><circle cx="750" cy="134" r="2.2" fill="#C09047" opacity="0.76"/><circle cx="563" cy="142" r="0.6" fill="#C09047" opacity="0.71"/><circle cx="581" cy="172" r="1.2" fill="#F2D592" opacity="0.66"/><circle cx="643" cy="63" r="1.2" fill="#C09047" opacity="0.32"/><circle cx="640" cy="154" r="0.5" fill="#FFE8B3" opacity="0.59"/><circle cx="606" cy="107" r="1.2" fill="#86511C" opacity="0.54"/><circle cx="680" cy="259" r="2.2" fill="#F2D592" opacity="0.51"/><circle cx="571" cy="106" r="0.8" fill="#86511C" opacity="0.66"/><circle cx="774" cy="179" r="1" fill="#F2D592" opacity="0.46"/><circle cx="573" cy="183" r="0.5" fill="#C09047" opacity="0.39"/><circle cx="654" cy="102" r="1.6" fill="#FFE8B3" opacity="0.89"/><circle cx="591" cy="227" r="1" fill="#C09047" opacity="0.74"/><circle cx="592" cy="136" r="0.6" fill="#FFE8B3" opacity="0.78"/><circle cx="665" cy="147" r="0.8" fill="#C09047" opacity="0.36"/><circle cx="428" cy="166" r="1.2" fill="#C09047" opacity="0.31"/><circle cx="580" cy="120" r="2.2" fill="#C09047" opacity="0.32"/><circle cx="669" cy="208" r="0.6" fill="#C09047" opacity="0.82"/><circle cx="614" cy="189" r="1.6" fill="#FFE8B3" opacity="0.52"/><circle cx="654" cy="137" r="1.6" fill="#C09047" opacity="0.69"/><circle cx="684" cy="268" r="0.6" fill="#F2D592" opacity="0.66"/><circle cx="302" cy="299" r="1" fill="#C09047" opacity="0.27"/><circle cx="433" cy="132" r="0.8" fill="#F2D592" opacity="0.35"/><circle cx="338" cy="8" r="0.8" fill="#C09047" opacity="0.37"/><circle cx="631" cy="233" r="0.8" fill="#F2D592" opacity="0.43"/><circle cx="692" cy="80" r="2.2" fill="#C09047" opacity="0.43"/><circle cx="661" cy="380" r="1.6" fill="#F2D592" opacity="0.18"/><circle cx="653" cy="414" r="1.6" fill="#FFE8B3" opacity="0.31"/><circle cx="695" cy="156" r="2.2" fill="#FFE8B3" opacity="0.60"/><circle cx="618" cy="329" r="0.6" fill="#FFE8B3" opacity="0.30"/><circle cx="670" cy="105" r="1" fill="#86511C" opacity="0.70"/><circle cx="227" cy="179" r="0.8" fill="#F2D592" opacity="0.16"/><circle cx="613" cy="157" r="1" fill="#FFE8B3" opacity="0.70"/><circle cx="656" cy="230" r="1" fill="#C09047" opacity="0.42"/><circle cx="680" cy="303" r="0.8" fill="#86511C" opacity="0.21"/><circle cx="650" cy="425" r="0.8" fill="#C09047" opacity="0.48"/><circle cx="640" cy="185" r="0.5" fill="#F2D592" opacity="0.49"/><circle cx="657" cy="140" r="0.5" fill="#C09047" opacity="0.48"/><circle cx="720" cy="327" r="0.5" fill="#F2D592" opacity="0.48"/><circle cx="777" cy="118" r="1.6" fill="#FFE8B3" opacity="0.65"/><circle cx="654" cy="74" r="1" fill="#C09047" opacity="0.71"/><circle cx="638" cy="103" r="1.6" fill="#F2D592" opacity="0.85"/><circle cx="676" cy="89" r="1.2" fill="#FFE8B3" opacity="0.59"/><circle cx="279" cy="179" r="2.2" fill="#FFE8B3" opacity="0.25"/><circle cx="603" cy="151" r="0.8" fill="#86511C" opacity="0.35"/><circle cx="771" cy="249" r="0.5" fill="#F2D592" opacity="0.44"/><circle cx="412" cy="145" r="1.6" fill="#86511C" opacity="0.48"/><circle cx="740" cy="127" r="1" fill="#C09047" opacity="0.70"/><circle cx="606" cy="167" r="1.6" fill="#FFE8B3" opacity="0.43"/><circle cx="699" cy="150" r="0.5" fill="#F2D592" opacity="0.83"/><circle cx="681" cy="113" r="0.6" fill="#C09047" opacity="0.33"/><circle cx="585" cy="224" r="1" fill="#C09047" opacity="0.51"/><circle cx="691" cy="259" r="1" fill="#F2D592" opacity="0.52"/><circle cx="770" cy="409" r="1" fill="#C09047" opacity="0.17"/><circle cx="672" cy="143" r="1" fill="#86511C" opacity="0.85"/><circle cx="362" cy="291" r="1.6" fill="#F2D592" opacity="0.15"/><circle cx="610" cy="34" r="0.5" fill="#FFE8B3" opacity="0.52"/><circle cx="656" cy="176" r="1" fill="#F2D592" opacity="0.87"/><circle cx="684" cy="164" r="0.8" fill="#C09047" opacity="0.36"/><circle cx="605" cy="112" r="1.6" fill="#C09047" opacity="0.71"/><circle cx="728" cy="211" r="2.2" fill="#F2D592" opacity="0.47"/><circle cx="685" cy="294" r="0.5" fill="#C09047" opacity="0.24"/><circle cx="575" cy="124" r="0.8" fill="#C09047" opacity="0.51"/><circle cx="729" cy="210" r="0.5" fill="#FFE8B3" opacity="0.80"/><circle cx="338" cy="14" r="1.6" fill="#C09047" opacity="0.26"/><circle cx="487" cy="346" r="1" fill="#C09047" opacity="0.47"/><circle cx="509" cy="65" r="1" fill="#F2D592" opacity="0.27"/><circle cx="662" cy="105" r="1" fill="#FFE8B3" opacity="0.71"/><circle cx="714" cy="305" r="1" fill="#C09047" opacity="0.48"/><circle cx="717" cy="140" r="1.2" fill="#C09047" opacity="0.78"/><circle cx="601" cy="100" r="1" fill="#F2D592" opacity="0.87"/><circle cx="585" cy="286" r="0.8" fill="#C09047" opacity="0.49"/><circle cx="663" cy="191" r="0.5" fill="#FFE8B3" opacity="0.64"/><circle cx="749" cy="227" r="0.5" fill="#F2D592" opacity="0.42"/><circle cx="756" cy="122" r="2.2" fill="#C09047" opacity="0.70"/><circle cx="679" cy="153" r="0.8" fill="#FFE8B3" opacity="0.59"/><circle cx="540" cy="17" r="0.5" fill="#F2D592" opacity="0.22"/><circle cx="625" cy="133" r="0.5" fill="#F2D592" opacity="0.60"/><circle cx="456" cy="104" r="0.5" fill="#C09047" opacity="0.30"/><circle cx="428" cy="469" r="0.5" fill="#86511C" opacity="0.28"/><circle cx="655" cy="82" r="1.2" fill="#FFE8B3" opacity="0.56"/><circle cx="333" cy="143" r="1.2" fill="#86511C" opacity="0.16"/><circle cx="577" cy="226" r="1.6" fill="#F2D592" opacity="0.37"/><circle cx="512" cy="85" r="0.8" fill="#C09047" opacity="0.31"/><circle cx="752" cy="73" r="0.8" fill="#86511C" opacity="0.24"/><circle cx="641" cy="110" r="1.2" fill="#C09047" opacity="0.44"/><circle cx="656" cy="337" r="1.6" fill="#F2D592" opacity="0.63"/><circle cx="554" cy="46" r="0.5" fill="#C09047" opacity="0.56"/><circle cx="686" cy="95" r="0.6" fill="#F2D592" opacity="0.86"/><circle cx="739" cy="233" r="0.5" fill="#FFE8B3" opacity="0.45"/><circle cx="507" cy="111" r="2.2" fill="#C09047" opacity="0.37"/><circle cx="665" cy="141" r="0.8" fill="#C09047" opacity="0.48"/><circle cx="481" cy="4" r="1.6" fill="#C09047" opacity="0.38"/><circle cx="593" cy="150" r="1" fill="#C09047" opacity="0.63"/><circle cx="626" cy="153" r="1.6" fill="#FFE8B3" opacity="0.54"/><circle cx="582" cy="104" r="0.6" fill="#FFE8B3" opacity="0.45"/><circle cx="639" cy="106" r="1" fill="#C09047" opacity="0.92"/><circle cx="771" cy="290" r="0.5" fill="#F2D592" opacity="0.65"/><circle cx="660" cy="137" r="2.2" fill="#FFE8B3" opacity="0.56"/><circle cx="558" cy="173" r="0.8" fill="#F2D592" opacity="0.51"/><circle cx="663" cy="142" r="1" fill="#C09047" opacity="0.56"/><circle cx="646" cy="130" r="0.8" fill="#C09047" opacity="0.52"/><circle cx="295" cy="31" r="1.6" fill="#FFE8B3" opacity="0.11"/><circle cx="585" cy="142" r="2.2" fill="#F2D592" opacity="0.72"/><circle cx="502" cy="81" r="0.6" fill="#C09047" opacity="0.22"/><circle cx="651" cy="85" r="1" fill="#FFE8B3" opacity="0.77"/><circle cx="491" cy="326" r="0.5" fill="#FFE8B3" opacity="0.36"/><circle cx="656" cy="109" r="0.8" fill="#FFE8B3" opacity="0.69"/><circle cx="725" cy="135" r="0.6" fill="#C09047" opacity="0.51"/><circle cx="382" cy="260" r="1.2" fill="#F2D592" opacity="0.15"/><circle cx="558" cy="219" r="1.2" fill="#C09047" opacity="0.27"/><circle cx="491" cy="257" r="1.6" fill="#86511C" opacity="0.41"/><circle cx="715" cy="154" r="0.6" fill="#FFE8B3" opacity="0.83"/><circle cx="598" cy="51" r="0.5" fill="#FFE8B3" opacity="0.62"/><circle cx="666" cy="190" r="0.8" fill="#C09047" opacity="0.43"/><circle cx="657" cy="319" r="0.6" fill="#C09047" opacity="0.32"/><circle cx="546" cy="189" r="0.6" fill="#F2D592" opacity="0.37"/><circle cx="650" cy="221" r="1.6" fill="#F2D592" opacity="0.74"/><circle cx="644" cy="126" r="1" fill="#86511C" opacity="0.44"/><circle cx="655" cy="141" r="0.5" fill="#C09047" opacity="0.50"/><circle cx="540" cy="467" r="1.2" fill="#FFE8B3" opacity="0.13"/><circle cx="637" cy="132" r="1.2" fill="#FFE8B3" opacity="0.36"/><circle cx="464" cy="196" r="0.5" fill="#F2D592" opacity="0.64"/><circle cx="688" cy="100" r="0.5" fill="#FFE8B3" opacity="0.40"/><circle cx="795" cy="11" r="0.5" fill="#FFE8B3" opacity="0.24"/><circle cx="775" cy="104" r="0.5" fill="#FFE8B3" opacity="0.27"/><circle cx="727" cy="125" r="1" fill="#FFE8B3" opacity="0.66"/><circle cx="756" cy="201" r="0.8" fill="#F2D592" opacity="0.40"/><circle cx="763" cy="202" r="2.2" fill="#86511C" opacity="0.25"/><circle cx="674" cy="41" r="0.5" fill="#F2D592" opacity="0.36"/><circle cx="596" cy="236" r="0.5" fill="#F2D592" opacity="0.30"/><circle cx="561" cy="302" r="1.2" fill="#C09047" opacity="0.21"/><circle cx="446" cy="34" r="0.6" fill="#C09047" opacity="0.47"/><circle cx="698" cy="317" r="0.5" fill="#C09047" opacity="0.45"/><circle cx="254" cy="54" r="0.6" fill="#FFE8B3" opacity="0.11"/><circle cx="636" cy="147" r="0.8" fill="#C09047" opacity="0.90"/><circle cx="492" cy="25" r="2.2" fill="#FFE8B3" opacity="0.47"/><circle cx="725" cy="61" r="1.2" fill="#F2D592" opacity="0.74"/><circle cx="559" cy="365" r="1" fill="#86511C" opacity="0.25"/><circle cx="463" cy="436" r="0.6" fill="#C09047" opacity="0.20"/><circle cx="585" cy="160" r="2.2" fill="#FFE8B3" opacity="0.60"/><circle cx="759" cy="168" r="2.2" fill="#C09047" opacity="0.73"/><circle cx="774" cy="179" r="0.5" fill="#C09047" opacity="0.48"/><circle cx="676" cy="125" r="2.2" fill="#C09047" opacity="0.84"/><circle cx="585" cy="218" r="0.5" fill="#FFE8B3" opacity="0.49"/><circle cx="678" cy="139" r="0.5" fill="#F2D592" opacity="0.74"/><circle cx="573" cy="112" r="2.2" fill="#C09047" opacity="0.33"/><circle cx="454" cy="309" r="1" fill="#C09047" opacity="0.21"/><circle cx="678" cy="44" r="2.2" fill="#F2D592" opacity="0.38"/><circle cx="702" cy="402" r="0.6" fill="#C09047" opacity="0.46"/><circle cx="259" cy="49" r="1.2" fill="#C09047" opacity="0.17"/><circle cx="464" cy="186" r="0.6" fill="#F2D592" opacity="0.27"/><circle cx="661" cy="147" r="1" fill="#C09047" opacity="0.52"/><circle cx="684" cy="135" r="0.8" fill="#86511C" opacity="0.71"/><circle cx="766" cy="172" r="1.6" fill="#FFE8B3" opacity="0.53"/><circle cx="607" cy="137" r="0.8" fill="#C09047" opacity="0.64"/><circle cx="510" cy="224" r="1.2" fill="#FFE8B3" opacity="0.32"/><circle cx="669" cy="546" r="2.2" fill="#F2D592" opacity="0.21"/><circle cx="726" cy="31" r="0.5" fill="#FFE8B3" opacity="0.40"/><circle cx="684" cy="116" r="0.8" fill="#FFE8B3" opacity="0.56"/><circle cx="533" cy="278" r="1.6" fill="#C09047" opacity="0.31"/><circle cx="753" cy="405" r="1.2" fill="#C09047" opacity="0.33"/><circle cx="746" cy="90" r="0.6" fill="#F2D592" opacity="0.59"/><circle cx="596" cy="146" r="1.6" fill="#C09047" opacity="0.76"/><circle cx="562" cy="207" r="2.2" fill="#FFE8B3" opacity="0.59"/><circle cx="609" cy="129" r="2.2" fill="#F2D592" opacity="0.31"/><circle cx="520" cy="82" r="0.6" fill="#C09047" opacity="0.59"/><circle cx="463" cy="140" r="0.5" fill="#F2D592" opacity="0.22"/><circle cx="659" cy="134" r="1.2" fill="#FFE8B3" opacity="0.31"/><circle cx="634" cy="215" r="1.2" fill="#F2D592" opacity="0.51"/><circle cx="653" cy="153" r="0.8" fill="#F2D592" opacity="0.50"/><circle cx="673" cy="137" r="1" fill="#FFE8B3" opacity="0.55"/><circle cx="648" cy="221" r="0.6" fill="#F2D592" opacity="0.32"/><circle cx="343" cy="21" r="0.5" fill="#C09047" opacity="0.19"/><circle cx="741" cy="128" r="1.6" fill="#86511C" opacity="0.41"/><circle cx="736" cy="136" r="0.6" fill="#FFE8B3" opacity="0.36"/><circle cx="642" cy="197" r="0.8" fill="#C09047" opacity="0.37"/><circle cx="382" cy="151" r="1.6" fill="#C09047" opacity="0.16"/><circle cx="623" cy="107" r="1" fill="#F2D592" opacity="0.78"/><circle cx="385" cy="492" r="0.5" fill="#F2D592" opacity="0.06"/><circle cx="535" cy="342" r="1.6" fill="#C09047" opacity="0.57"/><circle cx="690" cy="54" r="0.5" fill="#FFE8B3" opacity="0.68"/><circle cx="649" cy="137" r="1.6" fill="#C09047" opacity="0.66"/><circle cx="557" cy="27" r="1" fill="#C09047" opacity="0.68"/><circle cx="630" cy="147" r="2.2" fill="#FFE8B3" opacity="0.84"/><circle cx="568" cy="196" r="1.6" fill="#C09047" opacity="0.67"/><circle cx="656" cy="56" r="0.8" fill="#C09047" opacity="0.38"/><circle cx="664" cy="201" r="0.8" fill="#C09047" opacity="0.49"/><circle cx="656" cy="109" r="1" fill="#FFE8B3" opacity="0.68"/><circle cx="653" cy="95" r="1.6" fill="#C09047" opacity="0.50"/><circle cx="791" cy="74" r="1" fill="#C09047" opacity="0.37"/><circle cx="545" cy="124" r="1" fill="#C09047" opacity="0.24"/><circle cx="497" cy="393" r="1.6" fill="#C09047" opacity="0.40"/><circle cx="646" cy="165" r="2.2" fill="#C09047" opacity="0.91"/><circle cx="641" cy="58" r="0.8" fill="#C09047" opacity="0.63"/><circle cx="782" cy="199" r="0.6" fill="#F2D592" opacity="0.52"/><circle cx="555" cy="46" r="1" fill="#C09047" opacity="0.35"/><circle cx="468" cy="181" r="1.2" fill="#C09047" opacity="0.46"/><circle cx="523" cy="387" r="2.2" fill="#C09047" opacity="0.30"/><circle cx="675" cy="121" r="1.2" fill="#C09047" opacity="0.75"/><circle cx="725" cy="335" r="2.2" fill="#F2D592" opacity="0.50"/><circle cx="677" cy="37" r="0.8" fill="#C09047" opacity="0.59"/><circle cx="194" cy="486" r="0.5" fill="#C09047" opacity="0.06"/><circle cx="684" cy="212" r="0.8" fill="#C09047" opacity="0.44"/><circle cx="729" cy="59" r="0.6" fill="#FFE8B3" opacity="0.30"/><circle cx="638" cy="112" r="0.6" fill="#F2D592" opacity="0.57"/><circle cx="666" cy="134" r="0.6" fill="#C09047" opacity="0.62"/><circle cx="660" cy="142" r="1.6" fill="#F2D592" opacity="0.89"/><circle cx="660" cy="116" r="0.6" fill="#FFE8B3" opacity="0.57"/><circle cx="646" cy="154" r="0.8" fill="#F2D592" opacity="0.58"/><circle cx="542" cy="223" r="2.2" fill="#F2D592" opacity="0.44"/><circle cx="642" cy="115" r="0.5" fill="#F2D592" opacity="0.60"/><circle cx="770" cy="210" r="2.2" fill="#C09047" opacity="0.59"/><circle cx="721" cy="123" r="2.2" fill="#86511C" opacity="0.37"/><circle cx="657" cy="150" r="2.2" fill="#F2D592" opacity="0.53"/><circle cx="720" cy="68" r="1.2" fill="#C09047" opacity="0.73"/><circle cx="647" cy="139" r="1.2" fill="#FFE8B3" opacity="0.42"/><circle cx="478" cy="317" r="0.8" fill="#F2D592" opacity="0.54"/><circle cx="657" cy="141" r="1" fill="#F2D592" opacity="0.35"/><circle cx="692" cy="231" r="1.2" fill="#86511C" opacity="0.48"/><circle cx="607" cy="138" r="1" fill="#C09047" opacity="0.88"/><circle cx="616" cy="427" r="0.8" fill="#FFE8B3" opacity="0.47"/><circle cx="632" cy="90" r="1" fill="#F2D592" opacity="0.77"/><circle cx="604" cy="196" r="0.8" fill="#FFE8B3" opacity="0.76"/><circle cx="626" cy="417" r="1.6" fill="#C09047" opacity="0.40"/><circle cx="528" cy="142" r="0.8" fill="#F2D592" opacity="0.62"/><circle cx="697" cy="86" r="1" fill="#F2D592" opacity="0.46"/><circle cx="429" cy="29" r="0.5" fill="#C09047" opacity="0.49"/><circle cx="485" cy="74" r="0.8" fill="#F2D592" opacity="0.45"/><circle cx="580" cy="148" r="0.5" fill="#FFE8B3" opacity="0.26"/><circle cx="660" cy="140" r="2.2" fill="#F2D592" opacity="0.46"/><circle cx="637" cy="36" r="1" fill="#FFE8B3" opacity="0.36"/><circle cx="773" cy="118" r="1" fill="#FFE8B3" opacity="0.65"/><circle cx="412" cy="364" r="1" fill="#C09047" opacity="0.15"/><circle cx="500" cy="202" r="0.6" fill="#FFE8B3" opacity="0.43"/><circle cx="656" cy="346" r="1.2" fill="#FFE8B3" opacity="0.26"/><circle cx="677" cy="133" r="2.2" fill="#F2D592" opacity="0.74"/><circle cx="465" cy="557" r="1.6" fill="#C09047" opacity="0.10"/><circle cx="416" cy="28" r="0.5" fill="#F2D592" opacity="0.28"/><circle cx="670" cy="93" r="0.8" fill="#C09047" opacity="0.67"/><circle cx="680" cy="110" r="2.2" fill="#F2D592" opacity="0.50"/><circle cx="679" cy="148" r="1.2" fill="#C09047" opacity="0.57"/><circle cx="698" cy="292" r="1" fill="#F2D592" opacity="0.39"/><circle cx="656" cy="139" r="2.2" fill="#C09047" opacity="0.75"/><circle cx="570" cy="233" r="0.5" fill="#FFE8B3" opacity="0.76"/><circle cx="331" cy="225" r="1" fill="#F2D592" opacity="0.32"/><circle cx="475" cy="147" r="1" fill="#F2D592" opacity="0.29"/><circle cx="693" cy="90" r="1.2" fill="#F2D592" opacity="0.76"/><circle cx="693" cy="82" r="2.2" fill="#C09047" opacity="0.55"/><circle cx="735" cy="16" r="1" fill="#FFE8B3" opacity="0.67"/><circle cx="663" cy="207" r="1" fill="#C09047" opacity="0.45"/><circle cx="375" cy="177" r="1.2" fill="#86511C" opacity="0.34"/><circle cx="388" cy="209" r="2.2" fill="#F2D592" opacity="0.19"/><circle cx="694" cy="46" r="0.5" fill="#C09047" opacity="0.48"/><circle cx="444" cy="51" r="1" fill="#FFE8B3" opacity="0.57"/><circle cx="481" cy="3" r="1" fill="#C09047" opacity="0.44"/><circle cx="712" cy="22" r="2.2" fill="#C09047" opacity="0.30"/><circle cx="578" cy="149" r="0.6" fill="#F2D592" opacity="0.69"/><circle cx="663" cy="52" r="0.8" fill="#FFE8B3" opacity="0.80"/><circle cx="673" cy="38" r="1.6" fill="#F2D592" opacity="0.29"/><circle cx="460" cy="19" r="0.5" fill="#C09047" opacity="0.20"/><circle cx="239" cy="179" r="2.2" fill="#F2D592" opacity="0.19"/><circle cx="783" cy="50" r="2.2" fill="#F2D592" opacity="0.71"/><circle cx="541" cy="187" r="1.2" fill="#FFE8B3" opacity="0.43"/><circle cx="527" cy="111" r="1.6" fill="#C09047" opacity="0.29"/><circle cx="652" cy="115" r="2.2" fill="#FFE8B3" opacity="0.60"/><circle cx="696" cy="272" r="1.6" fill="#FFE8B3" opacity="0.26"/><circle cx="736" cy="80" r="2.2" fill="#C09047" opacity="0.81"/><circle cx="647" cy="682" r="1" fill="#F2D592" opacity="0.06"/><circle cx="594" cy="141" r="1" fill="#C09047" opacity="0.43"/><circle cx="506" cy="56" r="2.2" fill="#C09047" opacity="0.57"/><circle cx="636" cy="77" r="1" fill="#C09047" opacity="0.69"/><circle cx="278" cy="366" r="2.2" fill="#F2D592" opacity="0.14"/><circle cx="574" cy="130" r="0.5" fill="#FFE8B3" opacity="0.44"/><circle cx="660" cy="92" r="1" fill="#F2D592" opacity="0.78"/><circle cx="701" cy="170" r="0.8" fill="#FFE8B3" opacity="0.60"/><circle cx="725" cy="131" r="1.2" fill="#C09047" opacity="0.56"/><circle cx="652" cy="118" r="1.2" fill="#F2D592" opacity="0.48"/><circle cx="740" cy="197" r="0.6" fill="#C09047" opacity="0.55"/><circle cx="747" cy="230" r="0.5" fill="#C09047" opacity="0.48"/><circle cx="540" cy="156" r="2.2" fill="#FFE8B3" opacity="0.25"/><circle cx="682" cy="436" r="1" fill="#C09047" opacity="0.40"/><circle cx="684" cy="148" r="1.2" fill="#86511C" opacity="0.68"/><circle cx="660" cy="142" r="0.5" fill="#C09047" opacity="0.43"/><circle cx="598" cy="154" r="1.6" fill="#F2D592" opacity="0.49"/><circle cx="221" cy="327" r="1" fill="#86511C" opacity="0.11"/><circle cx="642" cy="309" r="1.6" fill="#F2D592" opacity="0.25"/><circle cx="616" cy="238" r="0.8" fill="#86511C" opacity="0.72"/><circle cx="502" cy="179" r="0.8" fill="#C09047" opacity="0.34"/><circle cx="668" cy="137" r="0.5" fill="#C09047" opacity="0.31"/><circle cx="691" cy="143" r="0.8" fill="#FFE8B3" opacity="0.35"/><circle cx="757" cy="446" r="2.2" fill="#FFE8B3" opacity="0.30"/><circle cx="786" cy="164" r="1" fill="#C09047" opacity="0.43"/><circle cx="650" cy="278" r="1.6" fill="#FFE8B3" opacity="0.30"/><circle cx="676" cy="143" r="2.2" fill="#C09047" opacity="0.91"/><circle cx="526" cy="81" r="1.6" fill="#C09047" opacity="0.67"/><circle cx="727" cy="163" r="1" fill="#FFE8B3" opacity="0.32"/><circle cx="753" cy="288" r="1" fill="#C09047" opacity="0.60"/><circle cx="781" cy="276" r="1.6" fill="#C09047" opacity="0.36"/><circle cx="619" cy="192" r="0.8" fill="#F2D592" opacity="0.80"/><circle cx="654" cy="424" r="1.2" fill="#FFE8B3" opacity="0.16"/><circle cx="730" cy="144" r="1" fill="#C09047" opacity="0.46"/><circle cx="541" cy="124" r="2.2" fill="#FFE8B3" opacity="0.27"/><circle cx="674" cy="202" r="0.6" fill="#86511C" opacity="0.43"/><circle cx="659" cy="152" r="1" fill="#FFE8B3" opacity="0.56"/><circle cx="502" cy="200" r="0.8" fill="#C09047" opacity="0.56"/><circle cx="303" cy="8" r="0.8" fill="#F2D592" opacity="0.16"/><circle cx="539" cy="65" r="1.2" fill="#C09047" opacity="0.34"/><circle cx="641" cy="293" r="1.2" fill="#C09047" opacity="0.31"/><circle cx="462" cy="261" r="1" fill="#FFE8B3" opacity="0.42"/><circle cx="687" cy="91" r="0.6" fill="#F2D592" opacity="0.67"/><circle cx="627" cy="246" r="1.6" fill="#F2D592" opacity="0.28"/><circle cx="599" cy="118" r="1" fill="#86511C" opacity="0.32"/><circle cx="611" cy="256" r="0.8" fill="#C09047" opacity="0.68"/><circle cx="699" cy="15" r="2.2" fill="#C09047" opacity="0.54"/><circle cx="637" cy="161" r="2.2" fill="#FFE8B3" opacity="0.76"/><circle cx="541" cy="236" r="1" fill="#F2D592" opacity="0.59"/><circle cx="772" cy="118" r="0.5" fill="#C09047" opacity="0.54"/><circle cx="526" cy="376" r="1.2" fill="#FFE8B3" opacity="0.27"/><circle cx="494" cy="172" r="1.6" fill="#FFE8B3" opacity="0.26"/><circle cx="681" cy="116" r="0.6" fill="#FFE8B3" opacity="0.59"/><circle cx="311" cy="403" r="1.6" fill="#C09047" opacity="0.20"/><circle cx="692" cy="121" r="0.5" fill="#C09047" opacity="0.78"/><circle cx="520" cy="326" r="1.6" fill="#F2D592" opacity="0.41"/><circle cx="688" cy="108" r="1.2" fill="#FFE8B3" opacity="0.73"/><circle cx="674" cy="138" r="0.5" fill="#FFE8B3" opacity="0.56"/><circle cx="706" cy="218" r="1.2" fill="#FFE8B3" opacity="0.51"/><circle cx="536" cy="65" r="2.2" fill="#F2D592" opacity="0.65"/><circle cx="685" cy="87" r="2.2" fill="#F2D592" opacity="0.49"/><circle cx="738" cy="55" r="1.2" fill="#C09047" opacity="0.44"/><circle cx="694" cy="79" r="1" fill="#86511C" opacity="0.40"/><circle cx="637" cy="4" r="1.6" fill="#C09047" opacity="0.72"/><circle cx="65" cy="294" r="1.2" fill="#C09047" opacity="0.06"/><circle cx="693" cy="71" r="1.2" fill="#FFE8B3" opacity="0.42"/><circle cx="586" cy="211" r="0.6" fill="#86511C" opacity="0.25"/><circle cx="666" cy="163" r="1.6" fill="#C09047" opacity="0.49"/><circle cx="485" cy="15" r="1.2" fill="#F2D592" opacity="0.22"/><circle cx="612" cy="192" r="1" fill="#F2D592" opacity="0.44"/><circle cx="674" cy="234" r="1.6" fill="#F2D592" opacity="0.68"/><circle cx="766" cy="167" r="1.2" fill="#F2D592" opacity="0.55"/><circle cx="584" cy="328" r="1.2" fill="#F2D592" opacity="0.43"/><circle cx="624" cy="122" r="0.6" fill="#C09047" opacity="0.38"/><circle cx="600" cy="82" r="0.5" fill="#FFE8B3" opacity="0.38"/><circle cx="572" cy="276" r="2.2" fill="#C09047" opacity="0.25"/><circle cx="583" cy="9" r="2.2" fill="#C09047" opacity="0.40"/><circle cx="624" cy="369" r="1.6" fill="#86511C" opacity="0.57"/><circle cx="472" cy="368" r="1.2" fill="#FFE8B3" opacity="0.21"/><circle cx="657" cy="98" r="2.2" fill="#F2D592" opacity="0.59"/><circle cx="449" cy="300" r="1.2" fill="#F2D592" opacity="0.31"/><circle cx="667" cy="144" r="2.2" fill="#F2D592" opacity="0.84"/><circle cx="728" cy="420" r="0.8" fill="#F2D592" opacity="0.26"/><circle cx="753" cy="332" r="2.2" fill="#86511C" opacity="0.53"/><circle cx="717" cy="193" r="1.2" fill="#C09047" opacity="0.44"/><circle cx="458" cy="265" r="0.8" fill="#86511C" opacity="0.54"/><circle cx="721" cy="259" r="0.5" fill="#C09047" opacity="0.75"/><circle cx="664" cy="248" r="0.8" fill="#86511C" opacity="0.75"/><circle cx="618" cy="140" r="1.2" fill="#FFE8B3" opacity="0.61"/><circle cx="689" cy="82" r="0.5" fill="#FFE8B3" opacity="0.55"/><circle cx="675" cy="138" r="0.8" fill="#F2D592" opacity="0.36"/><circle cx="482" cy="399" r="1" fill="#F2D592" opacity="0.19"/><circle cx="683" cy="192" r="2.2" fill="#C09047" opacity="0.89"/><circle cx="602" cy="255" r="0.8" fill="#FFE8B3" opacity="0.58"/><circle cx="765" cy="132" r="0.6" fill="#F2D592" opacity="0.53"/><circle cx="513" cy="198" r="0.5" fill="#F2D592" opacity="0.50"/><circle cx="345" cy="226" r="2.2" fill="#C09047" opacity="0.24"/><circle cx="663" cy="128" r="0.8" fill="#F2D592" opacity="0.67"/><circle cx="628" cy="146" r="2.2" fill="#F2D592" opacity="0.40"/><circle cx="662" cy="163" r="1.2" fill="#F2D592" opacity="0.72"/><circle cx="736" cy="83" r="1.2" fill="#FFE8B3" opacity="0.33"/><circle cx="566" cy="215" r="0.6" fill="#86511C" opacity="0.29"/><circle cx="655" cy="125" r="1.6" fill="#FFE8B3" opacity="0.73"/><circle cx="758" cy="268" r="0.8" fill="#F2D592" opacity="0.30"/><circle cx="632" cy="213" r="0.5" fill="#C09047" opacity="0.63"/><circle cx="639" cy="123" r="0.5" fill="#F2D592" opacity="0.67"/><circle cx="538" cy="175" r="2.2" fill="#C09047" opacity="0.74"/><circle cx="541" cy="145" r="1" fill="#C09047" opacity="0.71"/><circle cx="327" cy="31" r="1" fill="#FFE8B3" opacity="0.18"/><circle cx="689" cy="23" r="2.2" fill="#C09047" opacity="0.25"/><circle cx="621" cy="232" r="0.8" fill="#F2D592" opacity="0.80"/><circle cx="785" cy="286" r="2.2" fill="#F2D592" opacity="0.35"/><circle cx="610" cy="189" r="0.8" fill="#F2D592" opacity="0.77"/><circle cx="697" cy="171" r="0.8" fill="#C09047" opacity="0.57"/><circle cx="619" cy="201" r="0.5" fill="#C09047" opacity="0.69"/><circle cx="770" cy="163" r="0.6" fill="#C09047" opacity="0.68"/><circle cx="376" cy="64" r="1" fill="#F2D592" opacity="0.21"/><circle cx="636" cy="166" r="0.8" fill="#F2D592" opacity="0.74"/><circle cx="678" cy="139" r="2.2" fill="#C09047" opacity="0.38"/><circle cx="697" cy="424" r="1" fill="#C09047" opacity="0.41"/><circle cx="665" cy="117" r="0.5" fill="#F2D592" opacity="0.38"/><circle cx="587" cy="41" r="1.6" fill="#FFE8B3" opacity="0.41"/><circle cx="593" cy="171" r="2.2" fill="#F2D592" opacity="0.82"/><circle cx="669" cy="163" r="0.6" fill="#FFE8B3" opacity="0.44"/><circle cx="725" cy="188" r="2.2" fill="#86511C" opacity="0.47"/><circle cx="612" cy="83" r="0.8" fill="#C09047" opacity="0.34"/><circle cx="574" cy="75" r="1.6" fill="#FFE8B3" opacity="0.26"/><circle cx="657" cy="476" r="0.8" fill="#86511C" opacity="0.36"/><circle cx="680" cy="295" r="0.6" fill="#FFE8B3" opacity="0.52"/><circle cx="554" cy="168" r="0.6" fill="#F2D592" opacity="0.26"/><circle cx="660" cy="134" r="1.6" fill="#F2D592" opacity="0.68"/><circle cx="603" cy="261" r="1.2" fill="#F2D592" opacity="0.68"/><circle cx="721" cy="109" r="0.5" fill="#FFE8B3" opacity="0.84"/><circle cx="630" cy="148" r="1.2" fill="#FFE8B3" opacity="0.85"/><circle cx="476" cy="110" r="0.5" fill="#FFE8B3" opacity="0.52"/><circle cx="660" cy="14" r="1.6" fill="#FFE8B3" opacity="0.28"/><circle cx="166" cy="134" r="0.6" fill="#C09047" opacity="0.09"/><circle cx="390" cy="14" r="1.6" fill="#FFE8B3" opacity="0.37"/><circle cx="606" cy="63" r="1" fill="#FFE8B3" opacity="0.70"/><circle cx="342" cy="230" r="2.2" fill="#F2D592" opacity="0.32"/><circle cx="648" cy="78" r="0.8" fill="#C09047" opacity="0.41"/><circle cx="546" cy="185" r="1" fill="#C09047" opacity="0.43"/><circle cx="692" cy="65" r="1" fill="#C09047" opacity="0.55"/><circle cx="655" cy="234" r="1" fill="#C09047" opacity="0.55"/></svg>