<svg xmlns="http://www.w3.org/2000/svg" viewBox="0 0 800 800"><circle cx="106" cy="92" r="1.2" fill="#C09047" opacity="0.31"/><circle cx="38" cy="82" r="0.6" fill="#C09047" opacity="0.74"/><circle cx="207" cy="183" r="2.2" fill="#F2D592" opacity="0.51"/><circle cx="174" cy="129" r="1.2" fill="#86511C" opacity="0.69"/><circle cx="342" cy="110" r="2.2" fill="#C09047" opacity="0.21"/><circle cx="46" cy="192" r="1.2" fill="#C09047" opacity="0.55"/><circle cx="89" cy="111" r="0.8" fill="#C09047" opacity="0.67"/><circle cx="109" cy="11" r="1.2" fill="#C09047" opacity="0.53"/><circle cx="100" cy="235" r="1" fill="#F2D592" opacity="0.58"/><circle cx="142" cy="360" r="2.2" fill="#C09047" opacity="0.26"/><circle cx="124" cy="15" r="0.5" fill="#C09047" opacity="0.39"/><circle cx="335" cy="415" r="0.5" fill="#86511C" opacity="0.26"/><circle cx="308" cy="229" r="2.2" fill="#FFE8B3" opacity="0.46"/><circle cx="25" cy="63" r="1" fill="#C09047" opacity="0.53"/><circle cx="412" cy="321" r="1.6" fill="#FFE8B3" opacity="0.20"/><circle cx="273" cy="134" r="0.8" fill="#FFE8B3" opacity="0.67"/><circle cx="290" cy="81" r="1.2" fill="#C09047" opacity="0.39"/><circle cx="269" cy="190" r="0.6" fill="#FFE8B3" opacity="0.63"/><circle cx="294" cy="406" r="0.8" fill="#FFE8B3" opacity="0.26"/><circle cx="106" cy="331" r="0.8" fill="#FFE8B3" opacity="0.39"/><circle cx="147" cy="149" r="0.5" fill="#F2D592" opacity="0.75"/><circle cx="59" cy="90" r="0.5" fill="#C09047" opacity="0.40"/><circle cx="11" cy="420" r="2.2" fill="#F2D592" opacity="0.17"/><circle cx="90" cy="94" r="0.5" fill="#F2D592" opacity="0.68"/><circle cx="28" cy="221" r="0.6" fill="#F2D592" opacity="0.33"/><circle cx="332" cy="284" r="1.2" fill="#C09047" opacity="0.40"/><circle cx="10" cy="290" r="2.2" fill="#C09047" opacity="0.21"/><circle cx="363" cy="76" r="1" fill="#C09047" opacity="0.42"/><circle cx="150" cy="146" r="0.8" fill="#FFE8B3" opacity="0.36"/><circle cx="153" cy="185" r="0.8" fill="#C09047" opacity="0.88"/><circle cx="89" cy="131" r="2.2" fill="#C09047" opacity="0.89"/><circle cx="148" cy="128" r="0.6" fill="#F2D592" opacity="0.65"/><circle cx="91" cy="139" r="1.2" fill="#FFE8B3" opacity="0.68"/><circle cx="422" cy="113" r="2.2" fill="#C09047" opacity="0.44"/><circle cx="244" cy="460" r="1.6" fill="#C09047" opacity="0.26"/><circle cx="379" cy="182" r="0.8" fill="#C09047" opacity="0.28"/><circle cx="118" cy="12" r="0.8" fill="#C09047" opacity="0.42"/><circle cx="31" cy="317" r="1.2" fill="#FFE8B3" opacity="0.40"/><circle cx="343" cy="260" r="1" fill="#FFE8B3" opacity="0.44"/><circle cx="175" cy="1" r="2.2" fill="#86511C" opacity="0.40"/><circle cx="137" cy="120" r="1.6" fill="#86511C" opacity="0.60"/><circle cx="155" cy="156" r="1" fill="#FFE8B3" opacity="0.39"/><circle cx="224" cy="250" r="1" fill="#FFE8B3" opacity="0.66"/><circle cx="256" cy="265" r="1.6" fill="#F2D592" opacity="0.22"/><circle cx="186" cy="52" r="0.8" fill="#C09047" opacity="0.37"/><circle cx="137" cy="139" r="0.5" fill="#86511C" opacity="0.88"/><circle cx="6" cy="63" r="1" fill="#FFE8B3" opacity="0.68"/><circle cx="50" cy="134" r="2.2" fill="#C09047" opacity="0.76"/><circle cx="237" cy="142" r="0.6" fill="#C09047" opacity="0.71"/><circle cx="219" cy="172" r="1.2" fill="#F2D592" opacity="0.66"/><circle cx="157" cy="63" r="1.2" fill="#C09047" opacity="0.32"/><circle cx="160" cy="154" r="0.5" fill="#FFE8B3" opacity="0.59"/><circle cx="194" cy="107" r="1.2" fill="#86511C" opacity="0.54"/><circle cx="120" cy="259" r="2.2" fill="#F2D592" opacity="0.51"/><circle cx="229" cy="106" r="0.8" fill="#86511C" opacity="0.66"/><circle cx="26" cy="179" r="1" fill="#F2D592" opacity="0.46"/><circle cx="227" cy="183" r="0.5" fill="#C09047" opacity="0.39"/><circle cx="146" cy="102" r="1.6" fill="#FFE8B3" opacity="0.89"/><circle cx="209" cy="227" r="1" fill="#C09047" opacity="0.74"/><circle cx="208" cy="136" r="0.6" fill="#FFE8B3" opacity="0.78"/><circle cx="135" cy="147" r="0.8" fill="#C09047" opacity="0.36"/><circle cx="372" cy="166" r="1.2" fill="#C09047" opacity="0.31"/><circle cx="220" cy="120" r="2.2" fill="#C09047" opacity="0.32"/><circle cx="131" cy="208" r="0.6" fill="#C09047" opacity="0.82"/><circle cx="186" cy="189" r="1.6" fill="#FFE8B3" opacity="0.52"/><circle cx="146" cy="137" r="1.6" fill="#C09047" opacity="0.69"/><circle cx="116" cy="268" r="0.6" fill="#F2D592" opacity="0.66"/><circle cx="498" cy="299" r="1" fill="#C09047" opacity="0.27"/><circle cx="367" cy="132" r="0.8" fill="#F2D592" opacity="0.35"/><circle cx="462" cy="8" r="0.8" fill="#C09047" opacity="0.37"/><circle cx="169" cy="233" r="0.8" fill="#F2D592" opacity="0.43"/><circle cx="108" cy="80" r="2.2" fill="#C09047" opacity="0.43"/><circle cx="139" cy="380" r="1.6" fill="#F2D592" opacity="0.18"/><circle cx="147" cy="414" r="1.6" fill="#FFE8B3" opacity="0.31"/><circle cx="105" cy="156" r="2.2" fill="#FFE8B3" opacity="0.60"/><circle cx="182" cy="329" r="0.6" fill="#FFE8B3" opacity="0.30"/><circle cx="130" cy="105" r="1" fill="#86511C" opacity="0.70"/><circle cx="573" cy="179" r="0.8" fill="#F2D592" opacity="0.16"/><circle cx="187" cy="157" r="1" fill="#FFE8B3" opacity="0.70"/><circle cx="144" cy="230" r="1" fill="#C09047" opacity="0.42"/><circle cx="120" cy="303" r="0.8" fill="#86511C" opacity="0.21"/><circle cx="150" cy="425" r="0.8" fill="#C09047" opacity="0.48"/><circle cx="160" cy="185" r="0.5" fill="#F2D592" opacity="0.49"/><circle cx="143" cy="140" r="0.5" fill="#C09047" opacity="0.48"/><circle cx="80" cy="327" r="0.5" fill="#F2D592" opacity="0.48"/><circle cx="23" cy="118" r="1.6" fill="#FFE8B3" opacity="0.65"/><circle cx="146" cy="74" r="1" fill="#C09047" opacity="0.71"/><circle cx="162" cy="103" r="1.6" fill="#F2D592" opacity="0.85"/><circle cx="124" cy="89" r="1.2" fill="#FFE8B3" opacity="0.59"/><circle cx="521" cy="179" r="2.2" fill="#FFE8B3" opacity="0.25"/><circle cx="197" cy="151" r="0.8" fill="#86511C" opacity="0.35"/><circle cx="29" cy="249" r="0.5" fill="#F2D592" opacity="0.44"/><circle cx="388" cy="145" r="1.6" fill="#86511C" opacity="0.48"/><circle cx="60" cy="127" r="1" fill="#C09047" opacity="0.70"/><circle cx="194" cy="167" r="1.6" fill="#FFE8B3" opacity="0.43"/><circle cx="101" cy="150" r="0.5" fill="#F2D592" opacity="0.83"/><circle cx="119" cy="113" r="0.6" fill="#C09047" opacity="0.33"/><circle cx="215" cy="224" r="1" fill="#C09047" opacity="0.51"/><circle cx="109" cy="259" r="1" fill="#F2D592" opacity="0.52"/><circle cx="30" cy="409" r="1" fill="#C09047" opacity="0.17"/><circle cx="128" cy="143" r="1" fill="#86511C" opacity="0.85"/><circle cx="438" cy="291" r="1.6" fill="#F2D592" opacity="0.15"/><circle cx="190" cy="34" r="0.5" fill="#FFE8B3" opacity="0.52"/><circle cx="144" cy="176" r="1" fill="#F2D592" opacity="0.87"/><circle cx="116" cy="164" r="0.8" fill="#C09047" opacity="0.36"/><circle cx="195" cy="112" r="1.6" fill="#C09047" opacity="0.71"/><circle cx="72" cy="211" r="2.2" fill="#F2D592" opacity="0.47"/><circle cx="115" cy="294" r="0.5" fill="#C09047" opacity="0.24"/><circle cx="225" cy="124" r="0.8" fill="#C09047" opacity="0.51"/><circle cx="71" cy="210" r="0.5" fill="#FFE8B3" opacity="0.80"/><circle cx="462" cy="14" r="1.6" fill="#C09047" opacity="0.26"/><circle cx="313" cy="346" r="1" fill="#C09047" opacity="0.47"/><circle cx="291" cy="65" r="1" fill="#F2D592" opacity="0.27"/><circle cx="138" cy="105" r="1" fill="#FFE8B3" opacity="0.71"/><circle cx="86" cy="305" r="1" fill="#C09047" opacity="0.48"/><circle cx="83" cy="140" r="1.2" fill="#C09047" opacity="0.78"/><circle cx="199" cy="100" r="1" fill="#F2D592" opacity="0.87"/><circle cx="215" cy="286" r="0.8" fill="#C09047" opacity="0.49"/><circle cx="137" cy="191" r="0.5" fill="#FFE8B3" opacity="0.64"/><circle cx="51" cy="227" r="0.5" fill="#F2D592" opacity="0.42"/><circle cx="44" cy="122" r="2.2" fill="#C09047" opacity="0.70"/><circle cx="121" cy="153" r="0.8" fill="#FFE8B3" opacity="0.59"/><circle cx="260" cy="17" r="0.5" fill="#F2D592" opacity="0.22"/><circle cx="175" cy="133" r="0.5" fill="#F2D592" opacity="0.60"/><circle cx="344" cy="104" r="0.5" fill="#C09047" opacity="0.30"/><circle cx="372" cy="469" r="0.5" fill="#86511C" opacity="0.28"/><circle cx="145" cy="82" r="1.2" fill="#FFE8B3" opacity="0.56"/><circle cx="467" cy="143" r="1.2" fill="#86511C" opacity="0.16"/><circle cx="223" cy="226" r="1.6" fill="#F2D592" opacity="0.37"/><circle cx="288" cy="85" r="0.8" fill="#C09047" opacity="0.31"/><circle cx="48" cy="73" r="0.8" fill="#86511C" opacity="0.24"/><circle cx="159" cy="110" r="1.2" fill="#C09047" opacity="0.44"/><circle cx="144" cy="337" r="1.6" fill="#F2D592" opacity="0.63"/><circle cx="246" cy="46" r="0.5" fill="#C09047" opacity="0.56"/><circle cx="114" cy="95" r="0.6" fill="#F2D592" opacity="0.86"/><circle cx="61" cy="233" r="0.5" fill="#FFE8B3" opacity="0.45"/><circle cx="293" cy="111" r="2.2" fill="#C09047" opacity="0.37"/><circle cx="135" cy="141" r="0.8" fill="#C09047" opacity="0.48"/><circle cx="319" cy="4" r="1.6" fill="#C09047" opacity="0.38"/><circle cx="207" cy="150" r="1" fill="#C09047" opacity="0.63"/><circle cx="174" cy="153" r="1.6" fill="#FFE8B3" opacity="0.54"/><circle cx="218" cy="104" r="0.6" fill="#FFE8B3" opacity="0.45"/><circle cx="161" cy="106" r="1" fill="#C09047" opacity="0.92"/><circle cx="29" cy="290" r="0.5" fill="#F2D592" opacity="0.65"/><circle cx="140" cy="137" r="2.2" fill="#FFE8B3" opacity="0.56"/><circle cx="242" cy="173" r="0.8" fill="#F2D592" opacity="0.51"/><circle cx="137" cy="142" r="1" fill="#C09047" opacity="0.56"/><circle cx="154" cy="130" r="0.8" fill="#C09047" opacity="0.52"/><circle cx="505" cy="31" r="1.6" fill="#FFE8B3" opacity="0.11"/><circle cx="215" cy="142" r="2.2" fill="#F2D592" opacity="0.72"/><circle cx="298" cy="81" r="0.6" fill="#C09047" opacity="0.22"/><circle cx="149" cy="85" r="1" fill="#FFE8B3" opacity="0.77"/><circle cx="309" cy="326" r="0.5" fill="#FFE8B3" opacity="0.36"/><circle cx="144" cy="109" r="0.8" fill="#FFE8B3" opacity="0.69"/><circle cx="75" cy="135" r="0.6" fill="#C09047" opacity="0.51"/><circle cx="418" cy="260" r="1.2" fill="#F2D592" opacity="0.15"/><circle cx="242" cy="219" r="1.2" fill="#C09047" opacity="0.27"/><circle cx="309" cy="257" r="1.6" fill="#86511C" opacity="0.41"/><circle cx="85" cy="154" r="0.6" fill="#FFE8B3" opacity="0.83"/><circle cx="202" cy="51" r="0.5" fill="#FFE8B3" opacity="0.62"/><circle cx="134" cy="190" r="0.8" fill="#C09047" opacity="0.43"/><circle cx="143" cy="319" r="0.6" fill="#C09047" opacity="0.32"/><circle cx="254" cy="189" r="0.6" fill="#F2D592" opacity="0.37"/><circle cx="150" cy="221" r="1.6" fill="#F2D592" opacity="0.74"/><circle cx="156" cy="126" r="1" fill="#86511C" opacity="0.44"/><circle cx="145" cy="141" r="0.5" fill="#C09047" opacity="0.50"/><circle cx="260" cy="467" r="1.2" fill="#FFE8B3" opacity="0.13"/><circle cx="163" cy="132" r="1.2" fill="#FFE8B3" opacity="0.36"/><circle cx="336" cy="196" r="0.5" fill="#F2D592" opacity="0.64"/><circle cx="112" cy="100" r="0.5" fill="#FFE8B3" opacity="0.40"/><circle cx="5" cy="11" r="0.5" fill="#FFE8B3" opacity="0.24"/><circle cx="25" cy="104" r="0.5" fill="#FFE8B3" opacity="0.27"/><circle cx="73" cy="125" r="1" fill="#FFE8B3" opacity="0.66"/><circle cx="44" cy="201" r="0.8" fill="#F2D592" opacity="0.40"/><circle cx="37" cy="202" r="2.2" fill="#86511C" opacity="0.25"/><circle cx="126" cy="41" r="0.5" fill="#F2D592" opacity="0.36"/><circle cx="204" cy="236" r="0.5" fill="#F2D592" opacity="0.30"/><circle cx="239" cy="302" r="1.2" fill="#C09047" opacity="0.21"/><circle cx="354" cy="34" r="0.6" fill="#C09047" opacity="0.47"/><circle cx="102" cy="317" r="0.5" fill="#C09047" opacity="0.45"/><circle cx="546" cy="54" r="0.6" fill="#FFE8B3" opacity="0.11"/><circle cx="164" cy="147" r="0.8" fill="#C09047" opacity="0.90"/><circle cx="308" cy="25" r="2.2" fill="#FFE8B3" opacity="0.47"/><circle cx="75" cy="61" r="1.2" fill="#F2D592" opacity="0.74"/><circle cx="241" cy="365" r="1" fill="#86511C" opacity="0.25"/><circle cx="337" cy="436" r="0.6" fill="#C09047" opacity="0.20"/><circle cx="215" cy="160" r="2.2" fill="#FFE8B3" opacity="0.60"/><circle cx="41" cy="168" r="2.2" fill="#C09047" opacity="0.73"/><circle cx="26" cy="179" r="0.5" fill="#C09047" opacity="0.48"/><circle cx="124" cy="125" r="2.2" fill="#C09047" opacity="0.84"/><circle cx="215" cy="218" r="0.5" fill="#FFE8B3" opacity="0.49"/><circle cx="122" cy="139" r="0.5" fill="#F2D592" opacity="0.74"/><circle cx="227" cy="112" r="2.2" fill="#C09047" opacity="0.33"/><circle cx="346" cy="309" r="1" fill="#C09047" opacity="0.21"/><circle cx="122" cy="44" r="2.2" fill="#F2D592" opacity="0.38"/><circle cx="98" cy="402" r="0.6" fill="#C09047" opacity="0.46"/><circle cx="541" cy="49" r="1.2" fill="#C09047" opacity="0.17"/><circle cx="336" cy="186" r="0.6" fill="#F2D592" opacity="0.27"/><circle cx="139" cy="147" r="1" fill="#C09047" opacity="0.52"/><circle cx="116" cy="135" r="0.8" fill="#86511C" opacity="0.71"/><circle cx="34" cy="172" r="1.6" fill="#FFE8B3" opacity="0.53"/><circle cx="193" cy="137" r="0.8" fill="#C09047" opacity="0.64"/><circle cx="290" cy="224" r="1.2" fill="#FFE8B3" opacity="0.32"/><circle cx="131" cy="546" r="2.2" fill="#F2D592" opacity="0.21"/><circle cx="74" cy="31" r="0.5" fill="#FFE8B3" opacity="0.40"/><circle cx="116" cy="116" r="0.8" fill="#FFE8B3" opacity="0.56"/><circle cx="267" cy="278" r="1.6" fill="#C09047" opacity="0.31"/><circle cx="47" cy="405" r="1.2" fill="#C09047" opacity="0.33"/><circle cx="54" cy="90" r="0.6" fill="#F2D592" opacity="0.59"/><circle cx="204" cy="146" r="1.6" fill="#C09047" opacity="0.76"/><circle cx="238" cy="207" r="2.2" fill="#FFE8B3" opacity="0.59"/><circle cx="191" cy="129" r="2.2" fill="#F2D592" opacity="0.31"/><circle cx="280" cy="82" r="0.6" fill="#C09047" opacity="0.59"/><circle cx="337" cy="140" r="0.5" fill="#F2D592" opacity="0.22"/><circle cx="141" cy="134" r="1.2" fill="#FFE8B3" opacity="0.31"/><circle cx="166" cy="215" r="1.2" fill="#F2D592" opacity="0.51"/><circle cx="147" cy="153" r="0.8" fill="#F2D592" opacity="0.50"/><circle cx="127" cy="137" r="1" fill="#FFE8B3" opacity="0.55"/><circle cx="152" cy="221" r="0.6" fill="#F2D592" opacity="0.32"/><circle cx="457" cy="21" r="0.5" fill="#C09047" opacity="0.19"/><circle cx="59" cy="128" r="1.6" fill="#86511C" opacity="0.41"/><circle cx="64" cy="136" r="0.6" fill="#FFE8B3" opacity="0.36"/><circle cx="158" cy="197" r="0.8" fill="#C09047" opacity="0.37"/><circle cx="418" cy="151" r="1.6" fill="#C09047" opacity="0.16"/><circle cx="177" cy="107" r="1" fill="#F2D592" opacity="0.78"/><circle cx="415" cy="492" r="0.5" fill="#F2D592" opacity="0.06"/><circle cx="265" cy="342" r="1.6" fill="#C09047" opacity="0.57"/><circle cx="110" cy="54" r="0.5" fill="#FFE8B3" opacity="0.68"/><circle cx="151" cy="137" r="1.6" fill="#C09047" opacity="0.66"/><circle cx="243" cy="27" r="1" fill="#C09047" opacity="0.68"/><circle cx="170" cy="147" r="2.2" fill="#FFE8B3" opacity="0.84"/><circle cx="232" cy="196" r="1.6" fill="#C09047" opacity="0.67"/><circle cx="144" cy="56" r="0.8" fill="#C09047" opacity="0.38"/><circle cx="136" cy="201" r="0.8" fill="#C09047" opacity="0.49"/><circle cx="144" cy="109" r="1" fill="#FFE8B3" opacity="0.68"/><circle cx="147" cy="95" r="1.6" fill="#C09047" opacity="0.50"/><circle cx="9" cy="74" r="1" fill="#C09047" opacity="0.37"/><circle cx="255" cy="124" r="1" fill="#C09047" opacity="0.24"/><circle cx="303" cy="393" r="1.6" fill="#C09047" opacity="0.40"/><circle cx="154" cy="165" r="2.2" fill="#C09047" opacity="0.91"/><circle cx="159" cy="58" r="0.8" fill="#C09047" opacity="0.63"/><circle cx="18" cy="199" r="0.6" fill="#F2D592" opacity="0.52"/><circle cx="245" cy="46" r="1" fill="#C09047" opacity="0.35"/><circle cx="332" cy="181" r="1.2" fill="#C09047" opacity="0.46"/><circle cx="277" cy="387" r="2.2" fill="#C09047" opacity="0.30"/><circle cx="125" cy="121" r="1.2" fill="#C09047" opacity="0.75"/><circle cx="75" cy="335" r="2.2" fill="#F2D592" opacity="0.50"/><circle cx="123" cy="37" r="0.8" fill="#C09047" opacity="0.59"/><circle cx="606" cy="486" r="0.5" fill="#C09047" opacity="0.06"/><circle cx="116" cy="212" r="0.8" fill="#C09047" opacity="0.44"/><circle cx="71" cy="59" r="0.6" fill="#FFE8B3" opacity="0.30"/><circle cx="162" cy="112" r="0.6" fill="#F2D592" opacity="0.57"/><circle cx="134" cy="134" r="0.6" fill="#C09047" opacity="0.62"/><circle cx="140" cy="142" r="1.6" fill="#F2D592" opacity="0.89"/><circle cx="140" cy="116" r="0.6" fill="#FFE8B3" opacity="0.57"/><circle cx="154" cy="154" r="0.8" fill="#F2D592" opacity="0.58"/><circle cx="258" cy="223" r="2.2" fill="#F2D592" opacity="0.44"/><circle cx="158" cy="115" r="0.5" fill="#F2D592" opacity="0.60"/><circle cx="30" cy="210" r="2.2" fill="#C09047" opacity="0.59"/><circle cx="79" cy="123" r="2.2" fill="#86511C" opacity="0.37"/><circle cx="143" cy="150" r="2.2" fill="#F2D592" opacity="0.53"/><circle cx="80" cy="68" r="1.2" fill="#C09047" opacity="0.73"/><circle cx="153" cy="139" r="1.2" fill="#FFE8B3" opacity="0.42"/><circle cx="322" cy="317" r="0.8" fill="#F2D592" opacity="0.54"/><circle cx="143" cy="141" r="1" fill="#F2D592" opacity="0.35"/><circle cx="108" cy="231" r="1.2" fill="#86511C" opacity="0.48"/><circle cx="193" cy="138" r="1" fill="#C09047" opacity="0.88"/><circle cx="184" cy="427" r="0.8" fill="#FFE8B3" opacity="0.47"/><circle cx="168" cy="90" r="1" fill="#F2D592" opacity="0.77"/><circle cx="196" cy="196" r="0.8" fill="#FFE8B3" opacity="0.76"/><circle cx="174" cy="417" r="1.6" fill="#C09047" opacity="0.40"/><circle cx="272" cy="142" r="0.8" fill="#F2D592" opacity="0.62"/><circle cx="103" cy="86" r="1" fill="#F2D592" opacity="0.46"/><circle cx="371" cy="29" r="0.5" fill="#C09047" opacity="0.49"/><circle cx="315" cy="74" r="0.8" fill="#F2D592" opacity="0.45"/><circle cx="220" cy="148" r="0.5" fill="#FFE8B3" opacity="0.26"/><circle cx="140" cy="140" r="2.2" fill="#F2D592" opacity="0.46"/><circle cx="163" cy="36" r="1" fill="#FFE8B3" opacity="0.36"/><circle cx="27" cy="118" r="1" fill="#FFE8B3" opacity="0.65"/><circle cx="388" cy="364" r="1" fill="#C09047" opacity="0.15"/><circle cx="300" cy="202" r="0.6" fill="#FFE8B3" opacity="0.43"/><circle cx="144" cy="346" r="1.2" fill="#FFE8B3" opacity="0.26"/><circle cx="123" cy="133" r="2.2" fill="#F2D592" opacity="0.74"/><circle cx="335" cy="557" r="1.6" fill="#C09047" opacity="0.10"/><circle cx="384" cy="28" r="0.5" fill="#F2D592" opacity="0.28"/><circle cx="130" cy="93" r="0.8" fill="#C09047" opacity="0.67"/><circle cx="120" cy="110" r="2.2" fill="#F2D592" opacity="0.50"/><circle cx="121" cy="148" r="1.2" fill="#C09047" opacity="0.57"/><circle cx="102" cy="292" r="1" fill="#F2D592" opacity="0.39"/><circle cx="144" cy="139" r="2.2" fill="#C09047" opacity="0.75"/><circle cx="230" cy="233" r="0.5" fill="#FFE8B3" opacity="0.76"/><circle cx="469" cy="225" r="1" fill="#F2D592" opacity="0.32"/><circle cx="325" cy="147" r="1" fill="#F2D592" opacity="0.29"/><circle cx="107" cy="90" r="1.2" fill="#F2D592" opacity="0.76"/><circle cx="107" cy="82" r="2.2" fill="#C09047" opacity="0.55"/><circle cx="65" cy="16" r="1" fill="#FFE8B3" opacity="0.67"/><circle cx="137" cy="207" r="1" fill="#C09047" opacity="0.45"/><circle cx="425" cy="177" r="1.2" fill="#86511C" opacity="0.34"/><circle cx="412" cy="209" r="2.2" fill="#F2D592" opacity="0.19"/><circle cx="106" cy="46" r="0.5" fill="#C09047" opacity="0.48"/><circle cx="356" cy="51" r="1" fill="#FFE8B3" opacity="0.57"/><circle cx="319" cy="3" r="1" fill="#C09047" opacity="0.44"/><circle cx="88" cy="22" r="2.2" fill="#C09047" opacity="0.30"/><circle cx="222" cy="149" r="0.6" fill="#F2D592" opacity="0.69"/><circle cx="137" cy="52" r="0.8" fill="#FFE8B3" opacity="0.80"/><circle cx="127" cy="38" r="1.6" fill="#F2D592" opacity="0.29"/><circle cx="340" cy="19" r="0.5" fill="#C09047" opacity="0.20"/><circle cx="561" cy="179" r="2.2" fill="#F2D592" opacity="0.19"/><circle cx="17" cy="50" r="2.2" fill="#F2D592" opacity="0.71"/><circle cx="259" cy="187" r="1.2" fill="#FFE8B3" opacity="0.43"/><circle cx="273" cy="111" r="1.6" fill="#C09047" opacity="0.29"/><circle cx="148" cy="115" r="2.2" fill="#FFE8B3" opacity="0.60"/><circle cx="104" cy="272" r="1.6" fill="#FFE8B3" opacity="0.26"/><circle cx="64" cy="80" r="2.2" fill="#C09047" opacity="0.81"/><circle cx="153" cy="682" r="1" fill="#F2D592" opacity="0.06"/><circle cx="206" cy="141" r="1" fill="#C09047" opacity="0.43"/><circle cx="294" cy="56" r="2.2" fill="#C09047" opacity="0.57"/><circle cx="164" cy="77" r="1" fill="#C09047" opacity="0.69"/><circle cx="522" cy="366" r="2.2" fill="#F2D592" opacity="0.14"/><circle cx="226" cy="130" r="0.5" fill="#FFE8B3" opacity="0.44"/><circle cx="140" cy="92" r="1" fill="#F2D592" opacity="0.78"/><circle cx="99" cy="170" r="0.8" fill="#FFE8B3" opacity="0.60"/><circle cx="75" cy="131" r="1.2" fill="#C09047" opacity="0.56"/><circle cx="148" cy="118" r="1.2" fill="#F2D592" opacity="0.48"/><circle cx="60" cy="197" r="0.6" fill="#C09047" opacity="0.55"/><circle cx="53" cy="230" r="0.5" fill="#C09047" opacity="0.48"/><circle cx="260" cy="156" r="2.2" fill="#FFE8B3" opacity="0.25"/><circle cx="118" cy="436" r="1" fill="#C09047" opacity="0.40"/><circle cx="116" cy="148" r="1.2" fill="#86511C" opacity="0.68"/><circle cx="140" cy="142" r="0.5" fill="#C09047" opacity="0.43"/><circle cx="202" cy="154" r="1.6" fill="#F2D592" opacity="0.49"/><circle cx="579" cy="327" r="1" fill="#86511C" opacity="0.11"/><circle cx="158" cy="309" r="1.6" fill="#F2D592" opacity="0.25"/><circle cx="184" cy="238" r="0.8" fill="#86511C" opacity="0.72"/><circle cx="298" cy="179" r="0.8" fill="#C09047" opacity="0.34"/><circle cx="132" cy="137" r="0.5" fill="#C09047" opacity="0.31"/><circle cx="109" cy="143" r="0.8" fill="#FFE8B3" opacity="0.35"/><circle cx="43" cy="446" r="2.2" fill="#FFE8B3" opacity="0.30"/><circle cx="14" cy="164" r="1" fill="#C09047" opacity="0.43"/><circle cx="150" cy="278" r="1.6" fill="#FFE8B3" opacity="0.30"/><circle cx="124" cy="143" r="2.2" fill="#C09047" opacity="0.91"/><circle cx="274" cy="81" r="1.6" fill="#C09047" opacity="0.67"/><circle cx="73" cy="163" r="1" fill="#FFE8B3" opacity="0.32"/><circle cx="47" cy="288" r="1" fill="#C09047" opacity="0.60"/><circle cx="19" cy="276" r="1.6" fill="#C09047" opacity="0.36"/><circle cx="181" cy="192" r="0.8" fill="#F2D592" opacity="0.80"/><circle cx="146" cy="424" r="1.2" fill="#FFE8B3" opacity="0.16"/><circle cx="70" cy="144" r="1" fill="#C09047" opacity="0.46"/><circle cx="259" cy="124" r="2.2" fill="#FFE8B3" opacity="0.27"/><circle cx="126" cy="202" r="0.6" fill="#86511C" opacity="0.43"/><circle cx="141" cy="152" r="1" fill="#FFE8B3" opacity="0.56"/><circle cx="298" cy="200" r="0.8" fill="#C09047" opacity="0.56"/><circle cx="497" cy="8" r="0.8" fill="#F2D592" opacity="0.16"/><circle cx="261" cy="65" r="1.2" fill="#C09047" opacity="0.34"/><circle cx="159" cy="293" r="1.2" fill="#C09047" opacity="0.31"/><circle cx="338" cy="261" r="1" fill="#FFE8B3" opacity="0.42"/><circle cx="113" cy="91" r="0.6" fill="#F2D592" opacity="0.67"/><circle cx="173" cy="246" r="1.6" fill="#F2D592" opacity="0.28"/><circle cx="201" cy="118" r="1" fill="#86511C" opacity="0.32"/><circle cx="189" cy="256" r="0.8" fill="#C09047" opacity="0.68"/><circle cx="101" cy="15" r="2.2" fill="#C09047" opacity="0.54"/><circle cx="163" cy="161" r="2.2" fill="#FFE8B3" opacity="0.76"/><circle cx="259" cy="236" r="1" fill="#F2D592" opacity="0.59"/><circle cx="28" cy="118" r="0.5" fill="#C09047" opacity="0.54"/><circle cx="274" cy="376" r="1.2" fill="#FFE8B3" opacity="0.27"/><circle cx="306" cy="172" r="1.6" fill="#FFE8B3" opacity="0.26"/><circle cx="119" cy="116" r="0.6" fill="#FFE8B3" opacity="0.59"/><circle cx="489" cy="403" r="1.6" fill="#C09047" opacity="0.20"/><circle cx="108" cy="121" r="0.5" fill="#C09047" opacity="0.78"/><circle cx="280" cy="326" r="1.6" fill="#F2D592" opacity="0.41"/><circle cx="112" cy="108" r="1.2" fill="#FFE8B3" opacity="0.73"/><circle cx="126" cy="138" r="0.5" fill="#FFE8B3" opacity="0.56"/><circle cx="94" cy="218" r="1.2" fill="#FFE8B3" opacity="0.51"/><circle cx="264" cy="65" r="2.2" fill="#F2D592" opacity="0.65"/><circle cx="115" cy="87" r="2.2" fill="#F2D592" opacity="0.49"/><circle cx="62" cy="55" r="1.2" fill="#C09047" opacity="0.44"/><circle cx="106" cy="79" r="1" fill="#86511C" opacity="0.40"/><circle cx="163" cy="4" r="1.6" fill="#C09047" opacity="0.72"/><circle cx="735" cy="294" r="1.2" fill="#C09047" opacity="0.06"/><circle cx="107" cy="71" r="1.2" fill="#FFE8B3" opacity="0.42"/><circle cx="214" cy="211" r="0.6" fill="#86511C" opacity="0.25"/><circle cx="134" cy="163" r="1.6" fill="#C09047" opacity="0.49"/><circle cx="315" cy="15" r="1.2" fill="#F2D592" opacity="0.22"/><circle cx="188" cy="192" r="1" fill="#F2D592" opacity="0.44"/><circle cx="126" cy="234" r="1.6" fill="#F2D592" opacity="0.68"/><circle cx="34" cy="167" r="1.2" fill="#F2D592" opacity="0.55"/><circle cx="216" cy="328" r="1.2" fill="#F2D592" opacity="0.43"/><circle cx="176" cy="122" r="0.6" fill="#C09047" opacity="0.38"/><circle cx="200" cy="82" r="0.5" fill="#FFE8B3" opacity="0.38"/><circle cx="228" cy="276" r="2.2" fill="#C09047" opacity="0.25"/><circle cx="217" cy="9" r="2.2" fill="#C09047" opacity="0.40"/><circle cx="176" cy="369" r="1.6" fill="#86511C" opacity="0.57"/><circle cx="328" cy="368" r="1.2" fill="#FFE8B3" opacity="0.21"/><circle cx="143" cy="98" r="2.2" fill="#F2D592" opacity="0.59"/><circle cx="351" cy="300" r="1.2" fill="#F2D592" opacity="0.31"/><circle cx="133" cy="144" r="2.2" fill="#F2D592" opacity="0.84"/><circle cx="72" cy="420" r="0.8" fill="#F2D592" opacity="0.26"/><circle cx="47" cy="332" r="2.2" fill="#86511C" opacity="0.53"/><circle cx="83" cy="193" r="1.2" fill="#C09047" opacity="0.44"/><circle cx="342" cy="265" r="0.8" fill="#86511C" opacity="0.54"/><circle cx="79" cy="259" r="0.5" fill="#C09047" opacity="0.75"/><circle cx="136" cy="248" r="0.8" fill="#86511C" opacity="0.75"/><circle cx="182" cy="140" r="1.2" fill="#FFE8B3" opacity="0.61"/><circle cx="111" cy="82" r="0.5" fill="#FFE8B3" opacity="0.55"/><circle cx="125" cy="138" r="0.8" fill="#F2D592" opacity="0.36"/><circle cx="318" cy="399" r="1" fill="#F2D592" opacity="0.19"/><circle cx="117" cy="192" r="2.2" fill="#C09047" opacity="0.89"/><circle cx="198" cy="255" r="0.8" fill="#FFE8B3" opacity="0.58"/><circle cx="35" cy="132" r="0.6" fill="#F2D592" opacity="0.53"/><circle cx="287" cy="198" r="0.5" fill="#F2D592" opacity="0.50"/><circle cx="455" cy="226" r="2.2" fill="#C09047" opacity="0.24"/><circle cx="137" cy="128" r="0.8" fill="#F2D592" opacity="0.67"/><circle cx="172" cy="146" r="2.2" fill="#F2D592" opacity="0.40"/><circle cx="138" cy="163" r="1.2" fill="#F2D592" opacity="0.72"/><circle cx="64" cy="83" r="1.2" fill="#FFE8B3" opacity="0.33"/><circle cx="234" cy="215" r="0.6" fill="#86511C" opacity="0.29"/><circle cx="145" cy="125" r="1.6" fill="#FFE8B3" opacity="0.73"/><circle cx="42" cy="268" r="0.8" fill="#F2D592" opacity="0.30"/><circle cx="168" cy="213" r="0.5" fill="#C09047" opacity="0.63"/><circle cx="161" cy="123" r="0.5" fill="#F2D592" opacity="0.67"/><circle cx="262" cy="175" r="2.2" fill="#C09047" opacity="0.74"/><circle cx="259" cy="145" r="1" fill="#C09047" opacity="0.71"/><circle cx="473" cy="31" r="1" fill="#FFE8B3" opacity="0.18"/><circle cx="111" cy="23" r="2.2" fill="#C09047" opacity="0.25"/><circle cx="179" cy="232" r="0.8" fill="#F2D592" opacity="0.80"/><circle cx="15" cy="286" r="2.2" fill="#F2D592" opacity="0.35"/><circle cx="190" cy="189" r="0.8" fill="#F2D592" opacity="0.77"/><circle cx="103" cy="171" r="0.8" fill="#C09047" opacity="0.57"/><circle cx="181" cy="201" r="0.5" fill="#C09047" opacity="0.69"/><circle cx="30" cy="163" r="0.6" fill="#C09047" opacity="0.68"/><circle cx="424" cy="64" r="1" fill="#F2D592" opacity="0.21"/><circle cx="164" cy="166" r="0.8" fill="#F2D592" opacity="0.74"/><circle cx="122" cy="139" r="2.2" fill="#C09047" opacity="0.38"/><circle cx="103" cy="424" r="1" fill="#C09047" opacity="0.41"/><circle cx="135" cy="117" r="0.5" fill="#F2D592" opacity="0.38"/><circle cx="213" cy="41" r="1.6" fill="#FFE8B3" opacity="0.41"/><circle cx="207" cy="171" r="2.2" fill="#F2D592" opacity="0.82"/><circle cx="131" cy="163" r="0.6" fill="#FFE8B3" opacity="0.44"/><circle cx="75" cy="188" r="2.2" fill="#86511C" opacity="0.47"/><circle cx="188" cy="83" r="0.8" fill="#C09047" opacity="0.34"/><circle cx="226" cy="75" r="1.6" fill="#FFE8B3" opacity="0.26"/><circle cx="143" cy="476" r="0.8" fill="#86511C" opacity="0.36"/><circle cx="120" cy="295" r="0.6" fill="#FFE8B3" opacity="0.52"/><circle cx="246" cy="168" r="0.6" fill="#F2D592" opacity="0.26"/><circle cx="140" cy="134" r="1.6" fill="#F2D592" opacity="0.68"/><circle cx="197" cy="261" r="1.2" fill="#F2D592" opacity="0.68"/><circle cx="79" cy="109" r="0.5" fill="#FFE8B3" opacity="0.84"/><circle cx="170" cy="148" r="1.2" fill="#FFE8B3" opacity="0.85"/><circle cx="324" cy="110" r="0.5" fill="#FFE8B3" opacity="0.52"/><circle cx="140" cy="14" r="1.6" fill="#FFE8B3" opacity="0.28"/><circle cx="634" cy="134" r="0.6" fill="#C09047" opacity="0.09"/><circle cx="410" cy="14" r="1.6" fill="#FFE8B3" opacity="0.37"/><circle cx="194" cy="63" r="1" fill="#FFE8B3" opacity="0.70"/><circle cx="458" cy="230" r="2.2" fill="#F2D592" opacity="0.32"/><circle cx="152" cy="78" r="0.8" fill="#C09047" opacity="0.41"/><circle cx="254" cy="185" r="1" fill="#C09047" opacity="0.43"/><circle cx="108" cy="65" r="1" fill="#C09047" opacity="0.55"/><circle cx="145" cy="234" r="1" fill="#C09047" opacity="0.55"/></svg>